<?xml version="1.0" standalone="no"?>
<!DOCTYPE svg PUBLIC "-//W3C//DTD SVG 20010904//EN"
 "http://www.w3.org/TR/2001/REC-SVG-20010904/DTD/svg10.dtd">
<svg version="1.0" xmlns="http://www.w3.org/2000/svg"
 width="1000.000000pt" height="1000.000000pt" viewBox="0 0 1000.000000 1000.000000"
 preserveAspectRatio="xMidYMid meet">

<g transform="translate(0.000000,1000.000000) scale(0.100000,-0.100000)"
fill="#aa0000" stroke="none">
<path d="M4310 8083 c0 -483 4 -952 10 -1043 14 -251 19 -337 30 -565 5 -115
12 -244 15 -285 2 -41 7 -127 10 -190 3 -63 7 -149 10 -190 3 -41 7 -129 10
-195 3 -66 7 -154 10 -195 3 -41 7 -131 10 -200 3 -69 8 -154 10 -190 3 -36
10 -159 15 -275 13 -263 13 -276 45 -850 3 -49 9 -193 15 -320 6 -126 13 -249
16 -272 l5 -43 564 0 563 0 6 113 c11 203 26 480 31 587 3 58 7 148 10 200 3
52 7 147 10 210 3 63 7 149 10 190 3 41 7 125 10 185 3 61 9 196 15 300 5 105
14 282 20 395 6 113 15 293 20 400 10 197 16 312 25 495 21 422 26 518 30 580
13 196 17 462 18 1213 l2 822 -772 0 -773 0 0 -877z"/>
<path d="M4305 1685 l0 -705 775 0 775 0 0 705 0 705 -775 0 -775 0 0 -705z"/>
</g>
</svg>
